[2026-03-14 18:58:43] [INFO] Jarvis Desktop launcher started.
[2026-03-14 18:58:43] [INFO] Runtime log path: C:\Jarvis\logs\runtime_2026-03-14_18-58-43.txt
[2026-03-14 18:58:43] [INFO] Launcher executable: C:\Users\anden\AppData\Local\Python\pythoncore-3.14-64\pythonw.exe
[2026-03-14 18:58:43] [INFO] Root directory: C:\Jarvis
[2026-03-14 18:58:43] [INFO] Target script: C:\Jarvis\jarvis_desktop_test.py
[2026-03-14 18:58:43] [INFO] Diagnostics script: C:\Jarvis\desktop\jarvis_diagnostics.pyw
[2026-03-14 18:58:43] [INFO] Recovery attempts allowed: 3
[2026-03-14 18:58:43] [INFO] Voice hook ready: C:\Jarvis\jarvis_voice.py
[2026-03-14 18:58:43] [INFO] Starting desktop renderer process. attempt=1
[2026-03-14 18:58:43] [INFO] Child executable: C:\Users\anden\AppData\Local\Python\pythoncore-3.14-64\pythonw.exe
[2026-03-14 18:58:44] [STDOUT] Jarvis Desktop Concept 1 - Version 1.02
[2026-03-14 18:58:44] [STDOUT] Hotkey: Ctrl + Alt + End
[2026-03-14 18:58:44] [STDERR] Traceback (most recent call last):
[2026-03-14 18:58:44] [STDERR]   File "C:\Jarvis\jarvis_desktop_test.py", line 44, in <module>
[2026-03-14 18:58:44] [STDERR]     raise SystemExit(main())
[2026-03-14 18:58:44] [STDERR]                      ~~~~^^
[2026-03-14 18:58:44] [STDERR]   File "C:\Jarvis\jarvis_desktop_test.py", line 36, in main
[2026-03-14 18:58:44] [STDERR]     raise RuntimeError("Jarvis test crash triggered intentionally")
[2026-03-14 18:58:44] [STDERR] RuntimeError: Jarvis test crash triggered intentionally
[2026-03-14 18:58:44] [INFO] Desktop renderer exited. exit_code=1
[2026-03-14 18:58:44] [WARN] Recovery attempt 1/3
[2026-03-14 18:58:45] [INFO] Starting desktop renderer process. attempt=2
[2026-03-14 18:58:45] [INFO] Child executable: C:\Users\anden\AppData\Local\Python\pythoncore-3.14-64\pythonw.exe
[2026-03-14 18:58:45] [STDOUT] Jarvis Desktop Concept 1 - Version 1.02
[2026-03-14 18:58:45] [STDOUT] Hotkey: Ctrl + Alt + End
[2026-03-14 18:58:45] [STDERR] Traceback (most recent call last):
[2026-03-14 18:58:45] [STDERR]   File "C:\Jarvis\jarvis_desktop_test.py", line 44, in <module>
[2026-03-14 18:58:45] [STDERR]     raise SystemExit(main())
[2026-03-14 18:58:45] [STDERR]                      ~~~~^^
[2026-03-14 18:58:45] [STDERR]   File "C:\Jarvis\jarvis_desktop_test.py", line 36, in main
[2026-03-14 18:58:45] [STDERR]     raise RuntimeError("Jarvis test crash triggered intentionally")
[2026-03-14 18:58:45] [STDERR] RuntimeError: Jarvis test crash triggered intentionally
[2026-03-14 18:58:45] [INFO] Desktop renderer exited. exit_code=1
[2026-03-14 18:58:45] [WARN] Recovery attempt 2/3
[2026-03-14 18:58:46] [INFO] Starting desktop renderer process. attempt=3
[2026-03-14 18:58:46] [INFO] Child executable: C:\Users\anden\AppData\Local\Python\pythoncore-3.14-64\pythonw.exe
[2026-03-14 18:58:47] [STDOUT] Jarvis Desktop Concept 1 - Version 1.02
[2026-03-14 18:58:47] [STDOUT] Hotkey: Ctrl + Alt + End
[2026-03-14 18:58:47] [STDERR] Traceback (most recent call last):
[2026-03-14 18:58:47] [STDERR]   File "C:\Jarvis\jarvis_desktop_test.py", line 44, in <module>
[2026-03-14 18:58:47] [STDERR]     raise SystemExit(main())
[2026-03-14 18:58:47] [STDERR]                      ~~~~^^
[2026-03-14 18:58:47] [STDERR]   File "C:\Jarvis\jarvis_desktop_test.py", line 36, in main
[2026-03-14 18:58:47] [STDERR]     raise RuntimeError("Jarvis test crash triggered intentionally")
[2026-03-14 18:58:47] [STDERR] RuntimeError: Jarvis test crash triggered intentionally
[2026-03-14 18:58:47] [INFO] Desktop renderer exited. exit_code=1
[2026-03-14 18:58:47] [ERROR] Crash log written: C:\Jarvis\logs\crash\crash_2026-03-14_18-58-47.txt
[2026-03-14 18:58:47] [INFO] Trying voice line 'Um..... Sir, I seem to be malfunctioning.' using voice --text --mode
[2026-03-14 18:58:52] [VOICE_STDERR] [mp3 @ 000001B6A95EAF00] Estimating duration from bitrate, this may be inaccurate
[2026-03-14 18:58:52] [VOICE_STDERR] Input #0, mp3, from 'C:/Users/anden/AppData/Local/Temp/tmposqu94yw.mp3':
[2026-03-14 18:58:52] [VOICE_STDERR]   Duration: 00:00:03.86, start: 0.000000, bitrate: 48 kb/s
[2026-03-14 18:58:52] [VOICE_STDERR]   Stream #0:0: Audio: mp3 (mp3float), 24000 Hz, mono, fltp, 48 kb/s
[2026-03-14 18:58:52] [INFO] Voice line completed: Um..... Sir, I seem to be malfunctioning.
[2026-03-14 18:58:52] [INFO] Failure voice step 1/3 success=True line=Um..... Sir, I seem to be malfunctioning.
[2026-03-14 18:58:53] [INFO] Trying voice line 'Attempting restart.' using voice --text --mode
[2026-03-14 18:58:58] [VOICE_STDERR] [mp3 @ 000001C9F8E94180] Estimating duration from bitrate, this may be inaccurate
[2026-03-14 18:58:58] [VOICE_STDERR] Input #0, mp3, from 'C:/Users/anden/AppData/Local/Temp/tmpwt1bn315.mp3':
[2026-03-14 18:58:58] [VOICE_STDERR]   Duration: 00:00:03.86, start: 0.000000, bitrate: 48 kb/s
[2026-03-14 18:58:58] [VOICE_STDERR]   Stream #0:0: Audio: mp3 (mp3float), 24000 Hz, mono, fltp, 48 kb/s
[2026-03-14 18:58:58] [INFO] Voice line completed: Attempting restart.
[2026-03-14 18:58:58] [INFO] Failure voice step 2/3 success=True line=Attempting restart.
[2026-03-14 18:58:59] [INFO] Trying voice line 'Restart failed.' using voice --text --mode
[2026-03-14 18:59:03] [VOICE_STDERR] [mp3 @ 0000023B407C0440] Estimating duration from bitrate, this may be inaccurate
[2026-03-14 18:59:03] [VOICE_STDERR] Input #0, mp3, from 'C:/Users/anden/AppData/Local/Temp/tmpq6xcjchc.mp3':
[2026-03-14 18:59:03] [VOICE_STDERR]   Duration: 00:00:03.86, start: 0.000000, bitrate: 48 kb/s
[2026-03-14 18:59:03] [VOICE_STDERR]   Stream #0:0: Audio: mp3 (mp3float), 24000 Hz, mono, fltp, 48 kb/s
[2026-03-14 18:59:03] [INFO] Voice line completed: Restart failed.
[2026-03-14 18:59:03] [INFO] Failure voice step 3/3 success=True line=Restart failed.
[2026-03-14 18:59:04] [INFO] Diagnostics process launched.
